<svg xmlns="http://www.w3.org/2000/svg" version="1.1" xmlns:xlink="http://www.w3.org/1999/xlink" width="512" height="512" x="0" y="0" viewBox="0 0 32 32" style="enable-background:new 0 0 512 512" xml:space="preserve" class=""><g><path d="M2.304 11.459a.997.997 0 0 0 1.414-.021l2.128-2.194v15.983a1 1 0 1 0 2 0V9.244l2.128 2.194a1 1 0 1 0 1.436-1.393L7.563 6.08a.993.993 0 0 0-1.434 0h-.001l-3.846 3.964a1 1 0 0 0 .022 1.414zM26.88 12.923a1 1 0 0 0-1-1H15.028a1 1 0 1 0 0 2H25.88a1 1 0 0 0 1-1zM23.76 19.073a1 1 0 0 0-1-1h-7.732a1 1 0 1 0 0 2h7.732a1 1 0 0 0 1-1zM15.028 24.227a1 1 0 1 0 0 2h4.612a1 1 0 1 0 0-2zM29 5.773H15.028a1 1 0 1 0 0 2H29a1 1 0 1 0 0-2z" fill="#fff" opacity="1" data-original="#fff"></path></g></svg>