<svg xmlns="http://www.w3.org/2000/svg" version="1.1" xmlns:xlink="http://www.w3.org/1999/xlink" width="512" height="512" x="0" y="0" viewBox="0 0 32 32" style="enable-background:new 0 0 512 512" xml:space="preserve" class=""><g><path d="M2.304 20.541a1 1 0 0 0-.022 1.414l3.846 3.964a.993.993 0 0 0 1.435 0l3.847-3.964a1 1 0 1 0-1.435-1.392l-2.13 2.194V6.773a1 1 0 1 0-2 0v15.983l-2.127-2.193a1 1 0 0 0-1.414-.022zM26.88 12.923a1 1 0 0 0-1-1H15.028a1 1 0 1 0 0 2H25.88a1 1 0 0 0 1-1zM23.76 19.073a1 1 0 0 0-1-1h-7.732a1 1 0 1 0 0 2h7.732a1 1 0 0 0 1-1zM15.028 24.227a1 1 0 1 0 0 2h4.612a1 1 0 1 0 0-2zM29 5.773H15.028a1 1 0 1 0 0 2H29a1 1 0 1 0 0-2z" fill="#fff" opacity="1" data-original="#fff"></path></g></svg>