<svg xmlns="http://www.w3.org/2000/svg" version="1.1" xmlns:xlink="http://www.w3.org/1999/xlink" width="512" height="512" x="0" y="0" viewBox="0 0 385.497 385.495" style="enable-background:new 0 0 512 512" xml:space="preserve" class=""><g><path fill="#333333" d="M301.848 14.351 192.749 123.45 83.65 14.353c-19.135-19.135-50.161-19.136-69.296 0-19.136 19.136-19.137 50.163 0 69.298l109.099 109.096-109.1 109.098c-19.137 19.137-19.137 50.161 0 69.299 19.136 19.136 50.161 19.135 69.297-.002v.002l109.1-109.1 109.07 109.07c.01.01.018.02.025.029 19.137 19.136 50.162 19.134 69.298-.003 19.137-19.136 19.137-50.159 0-69.296L262.046 192.747l109.07-109.071c.01-.01.02-.017.029-.027 19.136-19.136 19.136-50.16 0-69.296-19.136-19.137-50.161-19.137-69.297-.002z" opacity="1" data-original="#333333" class=""></path></g></svg>