<svg xmlns="http://www.w3.org/2000/svg" version="1.1" xmlns:xlink="http://www.w3.org/1999/xlink" width="512" height="512" x="0" y="0" viewBox="0 0 60 60" style="enable-background:new 0 0 512 512" xml:space="preserve" class=""><g><path d="M58.109 16.289 33.431.978a6.469 6.469 0 0 0-6.862 0L1.891 16.289A3.975 3.975 0 0 0 0 19.688V56a4 4 0 0 0 4 4h52a4 4 0 0 0 4-4V19.688a3.975 3.975 0 0 0-1.891-3.399ZM57.83 56.8 34.758 38.5 58 20.064V56a1.986 1.986 0 0 1-.17.8ZM27.624 2.677a4.48 4.48 0 0 1 4.752 0l24.679 15.311a2.048 2.048 0 0 1 .17.138l-24.076 19.1-.287-.226a4.583 4.583 0 0 0-5.722 0l-.289.229L2.775 18.126a2.048 2.048 0 0 1 .17-.138ZM2.17 56.8A1.986 1.986 0 0 1 2 56V20.064L25.242 38.5ZM4 58c-.038 0-.073-.009-.11-.011l24.492-19.426a2.6 2.6 0 0 1 3.238 0l24.49 19.426c-.037 0-.072.011-.11.011Z" fill="#c3c3c3" opacity="1" data-original="#000000" class=""></path></g></svg>